<?xml version="1.0" standalone="no"?>
<!DOCTYPE svg PUBLIC "-//W3C//DTD SVG 20010904//EN"
 "http://www.w3.org/TR/2001/REC-SVG-20010904/DTD/svg10.dtd">
<svg version="1.0" xmlns="http://www.w3.org/2000/svg"
 width="300.000000pt" height="300.000000pt" viewBox="0 0 300.000000 300.000000"
 preserveAspectRatio="xMidYMid meet">
<metadata>
Created by potrace 1.10, written by Peter Selinger 2001-2011
</metadata>
<g transform="translate(0.000000,300.000000) scale(0.100000,-0.100000)"
fill="#000000" stroke="none">
<path d="M582 2283 l3 -238 49 -100 48 -100 28 60 c46 99 78 170 177 385 52
113 97 211 100 218 4 9 -40 12 -201 12 l-207 0 3 -237z"/>
<path d="M1440 1795 l0 -725 65 0 65 0 0 725 0 725 -65 0 -65 0 0 -725z"/>
<path d="M1610 1790 l0 -730 430 0 430 0 0 175 0 175 -230 0 -230 0 0 555 0
555 -200 0 -200 0 0 -730z"/>
<path d="M1005 1758 c-16 -38 -87 -193 -155 -343 -13 -27 -31 -69 -41 -92
l-18 -43 -106 0 -105 0 0 -105 0 -105 225 0 225 0 0 365 c0 201 -1 365 -3 365
-2 0 -12 -19 -22 -42z"/>
<path d="M1345 999 c-12 -19 5 -23 22 -6 16 16 16 17 1 17 -9 0 -20 -5 -23
-11z"/>
<path d="M600 881 c0 -74 2 -81 20 -81 21 0 25 11 20 70 -3 45 12 31 25 -23 8
-30 17 -43 31 -45 17 -2 24 6 36 50 l16 53 1 -52 c1 -50 3 -53 26 -53 25 0 25
1 25 80 l0 80 -35 0 c-33 0 -35 -2 -46 -45 -6 -25 -15 -45 -19 -45 -4 0 -11
19 -16 43 -8 40 -11 42 -46 45 l-38 3 0 -80z"/>
<path d="M875 935 c-61 -60 -3 -156 85 -139 42 9 65 39 65 86 0 51 -30 78 -87
78 -28 0 -46 -7 -63 -25z m93 -17 c7 -7 12 -24 12 -38 0 -14 -5 -31 -12 -38
-17 -17 -55 -15 -62 4 -16 42 1 84 34 84 9 0 21 -5 28 -12z"/>
<path d="M1085 908 c19 -29 35 -65 35 -80 0 -21 5 -28 20 -28 15 0 20 7 20 28
0 15 14 47 30 72 36 54 37 60 7 60 -16 0 -28 -9 -35 -25 -6 -14 -16 -25 -22
-25 -6 0 -16 11 -22 25 -8 18 -19 25 -40 25 l-29 0 36 -52z"/>
<path d="M1280 880 l0 -80 70 0 c56 0 70 3 70 15 0 11 -12 15 -50 15 -38 0
-50 4 -50 15 0 11 11 15 40 15 54 0 56 27 3 32 -55 4 -52 32 5 36 28 2 42 8
42 18 0 11 -15 14 -65 14 l-65 0 0 -80z"/>
<path d="M1590 880 l0 -80 65 0 c50 0 65 3 65 14 0 10 -14 16 -42 18 l-43 3
-3 63 c-3 54 -6 62 -22 62 -18 0 -20 -7 -20 -80z"/>
<path d="M1815 950 c-3 -6 -17 -40 -30 -78 l-24 -67 22 -3 c12 -2 23 1 25 7 5
14 72 15 72 1 0 -5 11 -10 25 -10 14 0 25 3 25 8 0 4 -12 40 -26 80 -25 66
-29 72 -55 72 -15 0 -31 -5 -34 -10z m50 -77 c5 -19 2 -23 -14 -23 -21 0 -26
15 -15 45 8 19 19 10 29 -22z"/>
<path d="M1977 938 c3 -13 9 -36 13 -53 5 -16 11 -42 14 -57 5 -23 12 -28 36
-28 27 0 29 3 36 45 3 25 10 45 14 45 4 0 11 -19 16 -42 8 -39 12 -43 39 -43
28 0 30 4 41 53 7 29 15 64 18 77 6 22 3 25 -18 25 -22 0 -26 -6 -32 -45 -6
-46 -24 -62 -24 -22 0 46 -12 67 -36 67 -18 0 -25 -7 -30 -27 -13 -65 -20 -69
-32 -20 -10 40 -16 47 -36 47 -20 0 -23 -4 -19 -22z"/>
</g>
</svg>
